<svg xmlns="http://www.w3.org/2000/svg" xmlns:xlink="http://www.w3.org/1999/xlink" width="350" zoomAndPan="magnify" viewBox="0 0 262.5 262.500001" height="350" preserveAspectRatio="xMidYMid meet" version="1.0"><defs><clipPath id="8d611386d0"><path d="M 97 99.40625 L 163 99.40625 L 163 161 L 97 161 Z M 97 99.40625 " clip-rule="nonzero"/></clipPath></defs><g clip-path="url(#8d611386d0)"><path fill="#ffffff" d="M 152.335938 101.597656 L 107.785156 101.597656 L 107.785156 99.433594 L 152.335938 99.433594 Z M 162.792969 109.25 L 160.488281 109.25 L 160.476562 108.855469 L 160.449219 108.46875 L 160.394531 108.085938 L 160.324219 107.710938 L 160.234375 107.339844 L 160.121094 106.980469 L 159.996094 106.625 L 159.847656 106.277344 L 159.683594 105.941406 L 159.503906 105.609375 L 159.308594 105.289062 L 159.09375 104.976562 L 158.867188 104.675781 L 158.625 104.386719 L 158.367188 104.109375 L 158.097656 103.84375 L 157.8125 103.589844 L 157.515625 103.347656 L 157.207031 103.121094 L 156.886719 102.90625 L 156.558594 102.707031 L 156.214844 102.523438 L 155.863281 102.355469 L 155.503906 102.199219 L 155.132812 102.0625 L 154.753906 101.941406 L 154.371094 101.839844 L 153.976562 101.753906 L 153.574219 101.6875 L 153.167969 101.636719 L 152.753906 101.609375 L 152.335938 101.597656 L 152.335938 99.433594 L 152.871094 99.449219 L 153.402344 99.484375 L 153.925781 99.546875 L 154.441406 99.636719 L 154.945312 99.746094 L 155.441406 99.875 L 155.929688 100.03125 L 156.402344 100.207031 L 156.867188 100.40625 L 157.316406 100.621094 L 157.753906 100.859375 L 158.179688 101.113281 L 158.589844 101.390625 L 158.984375 101.679688 L 159.363281 101.988281 L 159.726562 102.3125 L 160.074219 102.65625 L 160.402344 103.011719 L 160.710938 103.378906 L 161.003906 103.765625 L 161.277344 104.164062 L 161.527344 104.574219 L 161.757812 104.996094 L 161.96875 105.433594 L 162.15625 105.878906 L 162.324219 106.335938 L 162.464844 106.800781 L 162.582031 107.273438 L 162.675781 107.757812 L 162.738281 108.25 L 162.78125 108.746094 Z M 160.488281 151.058594 L 160.488281 109.25 L 162.792969 109.25 L 162.792969 151.058594 Z M 152.335938 160.871094 L 152.335938 158.707031 L 152.753906 158.699219 L 153.167969 158.667969 L 153.574219 158.621094 L 153.976562 158.554688 L 154.371094 158.46875 L 154.753906 158.363281 L 155.132812 158.246094 L 155.503906 158.105469 L 155.863281 157.953125 L 156.214844 157.785156 L 156.558594 157.597656 L 156.886719 157.398438 L 157.207031 157.1875 L 157.515625 156.957031 L 157.8125 156.71875 L 158.097656 156.464844 L 158.367188 156.195312 L 158.625 155.917969 L 158.867188 155.628906 L 159.09375 155.328125 L 159.308594 155.019531 L 159.503906 154.699219 L 159.683594 154.367188 L 159.847656 154.027344 L 159.996094 153.683594 L 160.121094 153.328125 L 160.234375 152.964844 L 160.324219 152.597656 L 160.394531 152.222656 L 160.449219 151.839844 L 160.476562 151.449219 L 160.488281 151.058594 L 162.792969 151.058594 L 162.78125 151.5625 L 162.738281 152.058594 L 162.675781 152.546875 L 162.582031 153.03125 L 162.464844 153.503906 L 162.324219 153.972656 L 162.15625 154.429688 L 161.96875 154.875 L 161.757812 155.308594 L 161.527344 155.730469 L 161.277344 156.140625 L 161.003906 156.539062 L 160.710938 156.925781 L 160.402344 157.296875 L 160.074219 157.652344 L 159.726562 157.992188 L 159.363281 158.316406 L 158.984375 158.625 L 158.589844 158.917969 L 158.179688 159.191406 L 157.753906 159.445312 L 157.316406 159.683594 L 156.867188 159.902344 L 156.402344 160.097656 L 155.929688 160.273438 L 155.441406 160.429688 L 154.945312 160.5625 L 154.441406 160.671875 L 153.925781 160.757812 L 153.402344 160.820312 L 152.871094 160.859375 Z M 107.785156 158.707031 L 152.335938 158.707031 L 152.335938 160.871094 L 107.785156 160.871094 Z M 97.328125 151.058594 L 99.632812 151.058594 L 99.640625 151.449219 L 99.671875 151.839844 L 99.726562 152.222656 L 99.796875 152.597656 L 99.886719 152.964844 L 100 153.328125 L 100.125 153.683594 L 100.273438 154.027344 L 100.4375 154.367188 L 100.617188 154.699219 L 100.8125 155.019531 L 101.027344 155.328125 L 101.253906 155.628906 L 101.496094 155.917969 L 101.753906 156.195312 L 102.023438 156.464844 L 102.308594 156.71875 L 102.605469 156.957031 L 102.914062 157.1875 L 103.234375 157.398438 L 103.5625 157.597656 L 103.90625 157.785156 L 104.257812 157.953125 L 104.617188 158.105469 L 104.988281 158.246094 L 105.367188 158.363281 L 105.75 158.46875 L 106.144531 158.554688 L 106.546875 158.621094 L 106.953125 158.667969 L 107.367188 158.699219 L 107.785156 158.707031 L 107.785156 160.871094 L 107.25 160.859375 L 106.71875 160.820312 L 106.195312 160.757812 L 105.683594 160.671875 L 105.175781 160.5625 L 104.679688 160.429688 L 104.191406 160.273438 L 103.71875 160.097656 L 103.253906 159.902344 L 102.804688 159.683594 L 102.367188 159.445312 L 101.941406 159.191406 L 101.53125 158.917969 L 101.136719 158.625 L 100.757812 158.316406 L 100.394531 157.992188 L 100.046875 157.652344 L 99.71875 157.296875 L 99.410156 156.925781 L 99.117188 156.539062 L 98.84375 156.140625 L 98.59375 155.730469 L 98.359375 155.308594 L 98.152344 154.875 L 97.964844 154.429688 L 97.796875 153.972656 L 97.65625 153.503906 L 97.539062 153.03125 L 97.445312 152.546875 L 97.382812 152.058594 L 97.339844 151.5625 Z M 99.632812 109.25 L 99.632812 151.058594 L 97.328125 151.058594 L 97.328125 109.25 Z M 107.785156 99.433594 L 107.785156 101.597656 L 107.367188 101.609375 L 106.953125 101.636719 L 106.546875 101.6875 L 106.144531 101.753906 L 105.75 101.839844 L 105.367188 101.941406 L 104.988281 102.0625 L 104.617188 102.199219 L 104.257812 102.355469 L 103.90625 102.523438 L 103.5625 102.707031 L 103.234375 102.90625 L 102.914062 103.121094 L 102.605469 103.347656 L 102.308594 103.589844 L 102.023438 103.84375 L 101.753906 104.109375 L 101.496094 104.386719 L 101.253906 104.675781 L 101.027344 104.976562 L 100.8125 105.289062 L 100.617188 105.609375 L 100.4375 105.941406 L 100.273438 106.277344 L 100.125 106.625 L 100 106.980469 L 99.886719 107.339844 L 99.796875 107.710938 L 99.726562 108.085938 L 99.671875 108.46875 L 99.640625 108.855469 L 99.632812 109.25 L 97.328125 109.25 L 97.339844 108.746094 L 97.382812 108.25 L 97.445312 107.757812 L 97.539062 107.273438 L 97.65625 106.800781 L 97.796875 106.335938 L 97.964844 105.878906 L 98.152344 105.433594 L 98.359375 104.996094 L 98.59375 104.574219 L 98.84375 104.164062 L 99.117188 103.765625 L 99.410156 103.382812 L 99.71875 103.011719 L 100.046875 102.65625 L 100.394531 102.3125 L 100.757812 101.988281 L 101.136719 101.679688 L 101.53125 101.390625 L 101.941406 101.113281 L 102.367188 100.859375 L 102.804688 100.621094 L 103.253906 100.40625 L 103.71875 100.207031 L 104.191406 100.03125 L 104.679688 99.878906 L 105.175781 99.746094 L 105.683594 99.632812 L 106.195312 99.546875 L 106.71875 99.484375 L 107.25 99.449219 Z M 107.785156 99.433594 " fill-opacity="1" fill-rule="nonzero"/></g><path fill="#c40202" d="M 107.785156 100.515625 L 152.335938 100.515625 C 157.460938 100.515625 161.640625 104.4375 161.640625 109.25 L 161.640625 151.058594 C 161.640625 155.867188 157.460938 159.789062 152.335938 159.789062 L 107.785156 159.789062 C 102.65625 159.789062 98.480469 155.867188 98.480469 151.058594 L 98.480469 109.25 C 98.480469 104.4375 102.65625 100.515625 107.785156 100.515625 Z M 107.785156 100.515625 " fill-opacity="1" fill-rule="evenodd"/><path fill="#fefefe" d="M 152.335938 106.046875 L 107.785156 106.046875 L 107.785156 103.160156 L 152.335938 103.160156 Z M 158.824219 109.25 L 155.75 109.25 L 155.746094 109.085938 L 155.730469 108.921875 L 155.710938 108.761719 L 155.679688 108.605469 L 155.640625 108.453125 L 155.597656 108.300781 L 155.542969 108.152344 L 155.480469 108.007812 L 155.414062 107.867188 L 155.335938 107.730469 L 155.253906 107.59375 L 155.167969 107.464844 L 155.070312 107.339844 L 154.96875 107.214844 L 154.859375 107.101562 L 154.746094 106.988281 L 154.625 106.878906 L 154.503906 106.78125 L 154.375 106.683594 L 154.238281 106.59375 L 154.097656 106.511719 L 153.957031 106.433594 L 153.808594 106.363281 L 153.65625 106.296875 L 153.503906 106.238281 L 153.347656 106.191406 L 153.183594 106.148438 L 153.023438 106.109375 L 152.855469 106.082031 L 152.683594 106.0625 L 152.511719 106.050781 L 152.335938 106.046875 L 152.335938 103.160156 L 152.667969 103.167969 L 152.996094 103.195312 L 153.320312 103.230469 L 153.640625 103.285156 L 153.953125 103.355469 L 154.261719 103.4375 L 154.566406 103.535156 L 154.859375 103.644531 L 155.148438 103.765625 L 155.425781 103.902344 L 155.699219 104.046875 L 155.960938 104.207031 L 156.214844 104.375 L 156.457031 104.554688 L 156.695312 104.75 L 156.917969 104.949219 L 157.132812 105.160156 L 157.339844 105.382812 L 157.53125 105.609375 L 157.710938 105.847656 L 157.878906 106.09375 L 158.035156 106.351562 L 158.179688 106.609375 L 158.3125 106.882812 L 158.425781 107.160156 L 158.53125 107.441406 L 158.617188 107.730469 L 158.691406 108.023438 L 158.746094 108.324219 L 158.789062 108.628906 L 158.816406 108.9375 Z M 155.75 151.058594 L 155.75 109.25 L 158.824219 109.25 L 158.824219 151.058594 Z M 152.335938 157.144531 L 152.335938 154.261719 L 152.511719 154.257812 L 152.683594 154.242188 L 152.855469 154.222656 L 153.023438 154.195312 L 153.183594 154.160156 L 153.347656 154.117188 L 153.503906 154.066406 L 153.65625 154.007812 L 153.808594 153.945312 L 153.957031 153.875 L 154.097656 153.796875 L 154.238281 153.710938 L 154.375 153.621094 L 154.503906 153.527344 L 154.625 153.425781 L 154.746094 153.320312 L 154.859375 153.207031 L 154.96875 153.089844 L 155.070312 152.96875 L 155.167969 152.839844 L 155.253906 152.710938 L 155.335938 152.578125 L 155.414062 152.4375 L 155.480469 152.296875 L 155.542969 152.152344 L 155.597656 152.003906 L 155.640625 151.855469 L 155.679688 151.699219 L 155.710938 151.542969 L 155.730469 151.382812 L 155.746094 151.222656 L 155.75 151.058594 L 158.824219 151.058594 L 158.816406 151.371094 L 158.789062 151.679688 L 158.746094 151.980469 L 158.691406 152.28125 L 158.617188 152.578125 L 158.53125 152.863281 L 158.425781 153.148438 L 158.308594 153.425781 L 158.179688 153.695312 L 158.035156 153.957031 L 157.878906 154.210938 L 157.710938 154.460938 L 157.53125 154.695312 L 157.339844 154.925781 L 157.132812 155.148438 L 156.917969 155.359375 L 156.695312 155.558594 L 156.460938 155.75 L 156.214844 155.933594 L 155.960938 156.101562 L 155.699219 156.257812 L 155.425781 156.40625 L 155.148438 156.539062 L 154.859375 156.664062 L 154.566406 156.773438 L 154.261719 156.871094 L 153.953125 156.953125 L 153.640625 157.019531 L 153.320312 157.074219 L 152.996094 157.113281 L 152.667969 157.136719 Z M 107.785156 154.261719 L 152.335938 154.261719 L 152.335938 157.144531 L 107.785156 157.144531 Z M 101.296875 151.058594 L 104.371094 151.058594 L 104.375 151.222656 L 104.390625 151.382812 L 104.410156 151.542969 L 104.441406 151.699219 L 104.480469 151.855469 L 104.523438 152.003906 L 104.578125 152.152344 L 104.640625 152.296875 L 104.707031 152.4375 L 104.785156 152.578125 L 104.867188 152.710938 L 104.957031 152.839844 L 105.050781 152.96875 L 105.15625 153.089844 L 105.261719 153.207031 L 105.375 153.320312 L 105.496094 153.425781 L 105.617188 153.527344 L 105.746094 153.621094 L 105.882812 153.710938 L 106.023438 153.796875 L 106.167969 153.875 L 106.3125 153.945312 L 106.464844 154.007812 L 106.617188 154.066406 L 106.773438 154.117188 L 106.9375 154.160156 L 107.101562 154.195312 L 107.265625 154.222656 L 107.4375 154.242188 L 107.609375 154.257812 L 107.785156 154.261719 L 107.785156 157.144531 L 107.453125 157.136719 L 107.125 157.113281 L 106.800781 157.074219 L 106.480469 157.019531 L 106.167969 156.953125 L 105.859375 156.871094 L 105.554688 156.773438 L 105.261719 156.664062 L 104.976562 156.539062 L 104.695312 156.40625 L 104.421875 156.257812 L 104.160156 156.101562 L 103.910156 155.933594 L 103.664062 155.75 L 103.425781 155.558594 L 103.203125 155.359375 L 102.988281 155.148438 L 102.785156 154.925781 L 102.59375 154.695312 L 102.410156 154.460938 L 102.242188 154.210938 L 102.085938 153.957031 L 101.941406 153.695312 L 101.8125 153.425781 L 101.695312 153.148438 L 101.589844 152.863281 L 101.503906 152.578125 L 101.429688 152.28125 L 101.375 151.980469 L 101.332031 151.679688 L 101.308594 151.371094 Z M 104.371094 109.25 L 104.371094 151.058594 L 101.296875 151.058594 L 101.296875 109.25 Z M 107.785156 103.160156 L 107.785156 106.046875 L 107.609375 106.050781 L 107.4375 106.0625 L 107.265625 106.082031 L 107.101562 106.109375 L 106.9375 106.148438 L 106.773438 106.191406 L 106.617188 106.238281 L 106.464844 106.296875 L 106.3125 106.363281 L 106.167969 106.433594 L 106.023438 106.511719 L 105.882812 106.59375 L 105.746094 106.683594 L 105.617188 106.78125 L 105.496094 106.878906 L 105.375 106.988281 L 105.261719 107.101562 L 105.15625 107.214844 L 105.050781 107.339844 L 104.953125 107.464844 L 104.867188 107.59375 L 104.785156 107.730469 L 104.707031 107.867188 L 104.640625 108.007812 L 104.578125 108.152344 L 104.523438 108.300781 L 104.480469 108.453125 L 104.441406 108.605469 L 104.410156 108.761719 L 104.390625 108.921875 L 104.375 109.085938 L 104.371094 109.25 L 101.296875 109.25 L 101.308594 108.9375 L 101.332031 108.628906 L 101.375 108.324219 L 101.429688 108.023438 L 101.503906 107.730469 L 101.589844 107.441406 L 101.695312 107.160156 L 101.8125 106.882812 L 101.941406 106.609375 L 102.085938 106.351562 L 102.242188 106.09375 L 102.410156 105.847656 L 102.589844 105.609375 L 102.785156 105.382812 L 102.988281 105.160156 L 103.203125 104.949219 L 103.425781 104.746094 L 103.664062 104.554688 L 103.910156 104.375 L 104.160156 104.207031 L 104.421875 104.046875 L 104.695312 103.902344 L 104.976562 103.765625 L 105.261719 103.644531 L 105.554688 103.535156 L 105.859375 103.4375 L 106.167969 103.355469 L 106.480469 103.285156 L 106.800781 103.230469 L 107.125 103.195312 L 107.453125 103.167969 Z M 107.785156 103.160156 " fill-opacity="1" fill-rule="nonzero"/><path fill="#c40202" d="M 107.785156 104.605469 L 152.335938 104.605469 C 155.058594 104.605469 157.285156 106.695312 157.285156 109.25 L 157.285156 151.058594 C 157.285156 153.613281 155.058594 155.703125 152.335938 155.703125 L 107.785156 155.703125 C 105.0625 155.703125 102.835938 153.613281 102.835938 151.058594 L 102.835938 109.25 C 102.835938 106.695312 105.0625 104.605469 107.785156 104.605469 Z M 107.785156 104.605469 " fill-opacity="1" fill-rule="evenodd"/><path fill="#ffffff" d="M 120.109375 139.539062 L 131.5 121.859375 C 134.003906 117.96875 139.335938 116.5625 143.527344 118.832031 C 147.722656 121.105469 149.257812 126.230469 146.75 130.121094 L 135.359375 147.800781 C 132.855469 151.691406 127.523438 153.097656 123.332031 150.828125 C 119.136719 148.554688 117.601562 143.429688 120.109375 139.539062 Z M 120.109375 139.539062 " fill-opacity="1" fill-rule="evenodd"/><path fill="#c40202" d="M 119.816406 108.390625 L 137.683594 108.808594 C 142.925781 108.933594 147.269531 112.84375 147.269531 117.824219 C 147.269531 122.757812 142.957031 126.960938 137.640625 126.839844 L 119.777344 126.421875 C 114.53125 126.296875 110.191406 122.386719 110.191406 117.40625 C 110.191406 112.472656 114.5 108.265625 119.816406 108.390625 Z M 119.816406 108.390625 " fill-opacity="1" fill-rule="evenodd"/><path fill="#ffffff" d="M 119.796875 109.144531 L 137.660156 109.5625 C 142.503906 109.675781 146.46875 113.277344 146.46875 117.824219 C 146.46875 122.371094 142.503906 126.199219 137.660156 126.085938 L 119.796875 125.667969 C 114.957031 125.558594 110.992188 121.953125 110.992188 117.40625 C 110.992188 112.863281 114.957031 109.03125 119.796875 109.144531 Z M 119.796875 109.144531 " fill-opacity="1" fill-rule="evenodd"/><path fill="#c40202" d="M 145.140625 123.601562 L 134.277344 141.25 C 132.707031 143.804688 129.1875 144.691406 126.464844 143.214844 C 123.746094 141.742188 122.800781 138.4375 124.371094 135.882812 L 130.503906 125.917969 L 130.503906 125.921875 L 137.347656 125.921875 L 137.347656 121.183594 L 133.417969 121.183594 L 135.246094 118.214844 C 135.269531 118.171875 135.296875 118.128906 135.324219 118.089844 C 137.558594 114.566406 141.082031 113.425781 145.15625 114.761719 L 145.253906 114.792969 L 145.339844 114.847656 C 146 115.253906 146.546875 115.777344 146.898438 116.441406 C 148.125 118.75 146.488281 121.671875 145.140625 123.601562 Z M 145.140625 123.601562 " fill-opacity="1" fill-rule="evenodd"/><path fill="#ffffff" d="M 125.101562 136.277344 L 135.972656 118.609375 C 135.996094 118.566406 136.019531 118.527344 136.046875 118.492188 C 138.21875 115.0625 141.464844 114.386719 144.878906 115.503906 C 147.171875 116.921875 147.019531 119.480469 144.421875 123.1875 L 133.550781 140.859375 C 132.210938 143.039062 129.210938 143.792969 126.886719 142.535156 C 124.5625 141.273438 123.757812 138.460938 125.101562 136.277344 Z M 125.101562 136.277344 " fill-opacity="1" fill-rule="evenodd"/><path fill="#c40202" d="M 141.527344 122.84375 L 119.84375 122.84375 C 116.71875 122.84375 114.160156 120.445312 114.160156 117.511719 C 114.160156 114.578125 116.71875 112.179688 119.84375 112.179688 L 141.585938 112.179688 C 141.640625 112.179688 141.691406 112.179688 141.742188 112.179688 C 143.933594 112.207031 146.019531 112.800781 147.566406 114.320312 C 149.234375 115.960938 149.847656 118.265625 149.921875 120.476562 C 150.015625 123.128906 149.375 125.878906 148.433594 128.367188 L 147.296875 131.367188 L 146.878906 128.210938 C 146.472656 125.144531 144.816406 123.324219 141.527344 122.84375 Z M 141.527344 122.84375 " fill-opacity="1" fill-rule="evenodd"/><path fill="#ffffff" d="M 119.84375 112.933594 L 141.585938 112.933594 C 141.636719 112.933594 141.683594 112.933594 141.730469 112.933594 C 149.425781 113.027344 150.5625 120.488281 147.675781 128.117188 C 147.207031 124.601562 145.179688 122.59375 141.585938 122.089844 L 119.84375 122.089844 C 117.160156 122.089844 114.964844 120.027344 114.964844 117.511719 C 114.964844 114.992188 117.160156 112.933594 119.84375 112.933594 Z M 119.84375 112.933594 " fill-opacity="1" fill-rule="evenodd"/></svg>